<?xml version="1.0" encoding="utf-8"?>
<!-- Svg Vector Icons : http://www.onlinewebfonts.com/icon -->
<!DOCTYPE svg PUBLIC "-//W3C//DTD SVG 1.1//EN" "http://www.w3.org/Graphics/SVG/1.1/DTD/svg11.dtd">
<svg version="1.1" xmlns="http://www.w3.org/2000/svg" xmlns:xlink="http://www.w3.org/1999/xlink" x="0px" y="0px" viewBox="0 0 1000 1000" enable-background="new 0 0 1000 1000" xml:space="preserve">
<metadata> Svg Vector Icons : http://www.onlinewebfonts.com/icon </metadata>
<g><g transform="translate(0.000000,512.000000) scale(0.100000,-0.100000)"><path d="M4443.4,5020c-674.7-75-1474.3-357.5-2047.1-718.9C1141.2,3505.3,310.8,2198.3,128.2,735.6c-32.7-274.9-38.4-872.6-9.6-1149.4c240.3-2270,2029.8-4080.6,4305.5-4359.4c359.4-44.2,1047.6-28.8,1370.5,28.8c515.1,92.3,922.6,224.9,1368.5,444c513.2,251.8,913,542,1320.5,953.4C9266-2555.1,9725.4-1607.5,9875.3-475.3c42.3,334.4,28.8,1062.9-28.8,1395.4c-192.2,1120.6-703.5,2064.4-1535.8,2839c-738.1,682.3-1701.1,1128.3-2714,1253.2C5339.1,5043,4695.2,5048.8,4443.4,5020z M5590.9,4685.5c836.1-109.6,1614.6-438.2,2296.9-970.7c369.1-286.4,805.4-784.2,1059.1-1201.3c453.6-749.6,667-1516.6,667-2393c0-599.7-92.3-1112.9-296-1637.6c-495.9-1284-1526.1-2275.8-2819.7-2714c-503.6-171.1-945.7-242.2-1497.3-242.2c-745.8,0-1391.6,148-2047.1,470.9C2063.8-3564.2,1356.5-2874.1,899-1993.8C545.3-1313.4,387.7-659.9,387.7,120.5c0,772.7,153.8,1414.7,503.6,2100.9c367.1,722.7,945.7,1349.3,1668.4,1808.7c495.9,315.2,1205.2,569,1835.6,653.5C4666.3,4722,5310.3,4722,5590.9,4685.5z"/><path d="M6736.5,2505.8c-34.6-9.6-101.9-48.1-149.9-86.5c-86.5-71.1-124.9-153.8-124.9-269.1c0-86.5-55.8-282.6-105.7-367.1c-57.7-100-211.4-244.1-319.1-299.9c-153.8-76.9-465.2-171.1-705.4-209.5c-347.9-57.7-542-148-724.6-338.3c-144.2-151.8-173-230.7-173-488.2c0-199.9,5.8-232.6,53.8-334.5c80.7-174.9,65.4-242.2-59.6-242.2c-59.6,0-67.3,7.7-119.2,121.1c-113.4,244.1-140.3,445.9-86.5,657.4c61.5,230.7,213.4,436.3,419,561.3c115.3,73,117.3,73,55.7,78.8c-96.1,9.6-465.2-63.4-609.3-121.1C3474.6,924,3044.1,453,2951.8-73.6c-40.4-230.7-26.9-611.2,28.8-830.3c71.1-272.9,169.2-403.6,376.7-501.7c199.9-96.1,249.9-98,1720.3-98H6452l124.9,59.6c159.5,76.9,265.2,171.1,365.2,321c263.3,401.7,251.8,1072.5-26.9,1480c-80.7,117.2-221,244.1-269.1,244.1c-26.9,0-88.4-215.3-173-607.4c-26.9-123-73-265.2-107.6-334.4c-88.4-173-251.8-330.6-436.3-419c-148-71.1-151.8-71.1-390.2-71.1c-232.6,0-244.1,1.9-374.8,63.4c-140.3,65.4-221,128.8-221,169.1c0,13.5,21.1,48.1,46.1,76.9l44.2,53.8l149.9-75c144.2-73,157.6-76.9,334.5-76.9c159.5,0,199.9,7.7,294.1,51.9c142.2,65.3,271,188.4,332.5,311.4c26.9,55.7,73,223,105.7,386.4c30.8,159.5,78.8,351.7,105.7,430.5c26.9,78.8,48,157.6,48,174.9c0,59.6,167.2,374.8,255.6,482.4c128.8,157.6,209.5,192.2,417.1,178.8c201.8-13.4,292.2,13.5,369.1,109.6c61.5,76.9,86.5,184.5,65.3,296c-23,119.2-165.3,247.9-307.5,276.8c-48.1,11.5-53.8,19.2-57.7,98C7134.3,2411.7,6949.8,2559.7,6736.5,2505.8z"/><path d="M2504-1732.4c-19.2-21.1-19.2-65.3,0-188.4c21.1-149.9,26.9-163.4,103.8-238.3c155.7-151.8,5.8-142.2,2393-142.2c1539.6,0,2145.1,5.8,2193.1,21.1c169.2,57.7,263.3,194.1,271,399.8c3.8,100-1.9,124.9-32.7,148C7376.5-1692,2536.6-1692,2504-1732.4z"/></g></g>
</svg>