<?xml version="1.0" encoding="utf-8"?>
<!-- Generator: Adobe Illustrator 19.0.0, SVG Export Plug-In . SVG Version: 6.00 Build 0)  -->
<svg version="1.1" id="Layer_2_1_" xmlns="http://www.w3.org/2000/svg" xmlns:xlink="http://www.w3.org/1999/xlink" x="0px" y="0px"
	 viewBox="0 0 315 225" style="enable-background:new 0 0 315 225;" xml:space="preserve">
<style type="text/css">
	.st0{display:none;}
	.st1{display:inline;fill:#B831BC;}
	.st2{fill:#FFFFFF;}
	.st3{fill:#F49712;}
	.st4{fill:#279F49;}
	.st5{fill:#4DA32F;}
	.st6{fill:url(#SVGID_1_);}
	.st7{fill:#1A4682;}
</style>
<g id="Layer_2">
</g>
<g id="Layer_3" class="st0">
	<rect id="XMLID_1_" x="29.3" y="28" class="st1" width="256.7" height="171"/>
</g>
<g id="Layer_3_1_">
</g>
<g>
	<path class="st2" d="M67.2,113.5c0-47.2,39-85.5,87.1-85.5s87.1,38.3,87.1,85.5s-39,85.5-87.1,85.5S67.2,160.7,67.2,113.5"/>
	<path class="st3" d="M74.9,113.8c0-43.1,35.7-78,79.8-78s79.8,34.9,79.8,78s-35.7,78-79.8,78S74.9,156.9,74.9,113.8"/>
	<g>
		<g>
			<path class="st4" d="M164.9,53.4c-5.6-2.1-10.5-2.3-14.8-1.6c2,1.4,2,3.6,2,3.6s-4-3.5-10.3-0.8c-1.3,0.7-2.5,1.4-3.8,2.1
				c-7.2,4.9-15.7,18.2-23.8,17.6c-0.1,0-2.5-0.1-2.5-0.1c0.5,0.3,3.1,1.8,3.1,1.8c3,1.1,8.1,4,18.5-1.3c11.6-6,13.6-12.6,24.2-13.3
				c2.5-0.2,4.9,0.3,7.1,1c8,2.9,13.8,10.8,15.8,14.5c0,0,0,0,0,0C180.5,77,179.4,58.6,164.9,53.4"/>
			<path class="st5" d="M157.6,61.4c-10.6,0.7-12.6,7.3-24.2,13.3C123,80,117.9,77.2,114.9,76c0,0-2.7-1.5-3.1-1.8
				c0,0,7.4,10.8,20.6,12.9c3.3,0.5,9.4-0.6,11.8-4.8c0.4,3-0.4,4.3-1.3,5.4c12.6-2.5,19.6-11.1,26-12.9c8-2.3,11.8,2.1,11.8,2.1
				c-2.4-4.5-10.4-15.1-21-15.6C158.9,61.4,158.3,61.4,157.6,61.4"/>
			
				<linearGradient id="SVGID_1_" gradientUnits="userSpaceOnUse" x1="107.8253" y1="141.648" x2="176.6994" y2="141.648" gradientTransform="matrix(0.999 4.560000e-002 4.560000e-002 -0.999 -2.3516 209.4114)">
				<stop  offset="0" style="stop-color:#279F49"/>
				<stop  offset="1" style="stop-color:#026841"/>
			</linearGradient>
			<path class="st6" d="M157.6,61.4c-10.6,0.7-12.6,7.3-24.2,13.3C123,80,117.9,77.2,114.9,76c0,0-2.7-1.5-3.1-1.8
				c0,0,7.4,10.8,20.6,12.9c3.3,0.5,9.4-0.6,11.8-4.8c0.4,3-0.4,4.3-1.3,5.4c12.6-2.5,19.6-11.1,26-12.9c8-2.3,11.8,2.1,11.8,2.1
				c-2.4-4.5-10.4-15.1-21-15.6C158.9,61.4,158.3,61.4,157.6,61.4"/>
		</g>
	</g>
	<g>
		<path class="st2" d="M107.7,80.7c-4.9-5.2-15.3-6-25.1-1.3c-4.4,2.1-26.6,13.5-28.3,31.3l-0.1,1.1c-0.1,1.5-0.1,2.9-0.1,4.4
			c0,26.6,12.3,50,25.1,61.8c7,6.5,12.8,10.4,17.8,8.1c2.9-1.3,5-4.1,5.7-9.3c0.7-5.3,0.3-11.7,0.3-11.7c5.5,6.9,14.7,9.7,22,8.1
			c6-1.3,12.9-6.1,14-13.5l0.3-1.6c0,0,1.9,0.5,2,0.5c3.8,0.7,9.2,0.5,12.2-2.1c0.9-0.9,1.6-1.8,1.9-3l0.5-1.5l1.5,0.5
			c3.3,1.1,6.7,0.8,9.9-0.8c2-1,3.7-2.4,5-4.1l1-1.4l1.3,1.2c1.2,1.1,2.3,1.9,3.4,2.5c4.9,2.3,10.9,1.3,15.1-2.5
			c1.5-1.3,3.1-3.7,4.4-6.7l0.8-1.7l1.6,1.3l0.9,0.6c1.7,1,4.5,1.4,8.2-1.9c2.8-2.5,5.2-6.1,7.1-10.6l0.9-2.2l1.6,1.8
			c1,1.1,1.9,1.9,2.8,2.5c4.6,3.1,10.7,4,15.3,2.1c1.4-0.6,2.6-1.3,3.8-2.3l0.9-0.8l1,0.6c2.4,1.7,5.5,2.9,9.3,3.8
			c3.9,0.9,5.9-1,6.7-2.1c1.4-2,1.4-4.8-0.1-7.2c-1.4-2.2-0.7-4.7,0.7-9.2c1-3.1,2.1-6.7,2.4-10.9c0.8-12.6-4.1-19-8.5-22.1
			c-7.1-5.2-16.2-4.4-21.8-2.2l-1.3,0.6l-2,1l-0.6-1.5c-0.7-1.6-1.8-3-3.1-4.1c-3-2.4-7.2-3.1-12.6-2.2l-0.9,0.1l-0.6-0.8
			c-9-12.1-16.1-9.8-18.1-8.8l0,0c-3,1.5-4.9,4.7-5.4,8.8c0,0.4-0.1,0.9-0.1,1.3c0,1.2,0.1,2.6,0.4,4.3l0.3,1.6l-3.6,0.4
			c-2.3,0.3-4.4,0.4-5.7,0.7c-2.6,0.5-4.5,2.3-5,4.6c0,0-0.1,0.8-0.1,0.8c0-0.1,0,0.9,0,0.9v1.4l-1.4,0.3l-1,0.1
			c-4.6,0.8-9.1,3.6-12.4,7.6l-0.8,1l-1.1-0.6c-1.9-1-3.7-1.3-5.3-0.8c-1.9,0.5-3.4,1.8-4.2,3.5c-0.3,0.7-0.5,1.4-0.6,2.3l-0.4,3.5
			l-2.2-2.8c-1.8-2.2-3.8-3.9-6-5.3c-7.4-4.3-15.9-3.6-21.5-1.5c-2.8,1.1-7.6,2.8-11.5,7.5C110.7,96.1,114.2,87.5,107.7,80.7z"/>
		<path class="st7" d="M158.4,105.1c3.5-11,19.1-18.4,31.6-1.7c11.8,15.8,5.5,35.8,0.1,40.6c-6,5.3-15.5,2.1-15.2-6.7
			c0.2-6.4,2.6-7.6,4.3-18.2c1.6-9.7-0.5-18.6-9.4-16.1c-5.8,1.6-6.8,9.4-2.9,19.4c4.5,11.7,6.1,21.4-1.7,25.3
			c-6.4,3.2-13.2-1.1-13.7-11.2c-0.6-12.1,2.2-23.3-0.8-30.3c-0.9-2.1-1-4.7,1.1-5.3C153.9,100.3,156.8,103.3,158.4,105.1
			 M151.3,151.3c-0.1-1.9-6-3.7-5.6-15.6c0.2-4.4,0.1-10.6-0.8-16.7c-3.1-21-19.5-21.5-27.8-18.4c-6,2.2-10.1,7.2-11.3,9.8
			c-1.3,2.8-0.6,5.5,2.7,3.9c3.1-1.5,7.6-2.3,10.1,0.5c2.3,2.6,2.4,6.1,2.9,9.4c-1.7,0.3-6.7,1.9-8.5,3.1c-7.6,5-16.8,15.4-9.9,29.9
			c3.4,7,11.3,13.7,20.8,11.6c5.2-1.1,11.9-5.8,10.6-13.2c-1-5.9-9.9-5.6-14.8-5.9c-10.4-0.6-7.8-10.2-4.3-13.7
			c4.5-4.6,10-1.1,11.5,3.1c2.8,7.7,5.6,13.4,14.8,15C146.1,154.8,151.4,154.2,151.3,151.3z M103.3,122.1c-2.1-4-9.8-1.8-17.5,2.5
			c-1.9-3.7-4-9.1-4-9.1S95,109,103.8,95.9c9.5-14.3-6.6-18.6-19.4-12.6c-8.6,4.1-25.2,14.6-25.9,28.7
			c-1.4,26.3,10.5,50.6,23.6,62.8c12.1,11.2,15.6,9.4,15.6-1.3c-0.1-12.5-2.4-24.3-5.3-33.1C99.4,134.3,105.4,126,103.3,122.1
			 M232.5,84c-3.9,1.5-6.5,3.9-8.2,6.1c-1.4,1.8,0.1,3.6,1.8,3.2c4-1,10.3-0.9,11.3,6.9c-13.4,0.4-18.6,7.4-18.6,16.4
			c0,10.5,10.8,13.8,16.3,11.6c2.6-1,4.2-2.4,4.5-5c0.7-5.5-6.2-5.5-7.8-6c-5.3-1.9-3.6-8-0.2-9.7c3-1.5,7.1,0.3,7.6,4.8
			c0.9,8.6,0.9,14.4,13.4,17.1c3,0.7,2.7-1.5,1.9-2.8c-4.1-6.5,1.7-13,2.4-22.7C258.2,83.3,242,80.3,232.5,84 M223.6,84.2
			c0.1-3.1-2.7-9-15.1-5.4c-11.8-19-22.2-10.9-15.9,5c-3.2,1-11.2,1.3-14,1.9c-2.6,0.5-2,2.9,0.2,4.6c4,3.2,14.2,4.3,18.2,4.7
			c5.6,14,7.1,31,5.5,38.7c-0.9,4.4,1.3,3.6,3.5,1.7c9.6-8.6,11.5-28.8,8.8-42.4C222,90,223.5,86.9,223.6,84.2"/>
	</g>
</g>
</svg>
