<?xml version="1.0" encoding="UTF-8" standalone="no"?>
<!-- Created with Inkscape (http://www.inkscape.org/) -->
<svg
   xmlns:dc="http://purl.org/dc/elements/1.1/"
   xmlns:cc="http://creativecommons.org/ns#"
   xmlns:rdf="http://www.w3.org/1999/02/22-rdf-syntax-ns#"
   xmlns:svg="http://www.w3.org/2000/svg"
   xmlns="http://www.w3.org/2000/svg"
   xmlns:xlink="http://www.w3.org/1999/xlink"
   xmlns:sodipodi="http://sodipodi.sourceforge.net/DTD/sodipodi-0.dtd"
   xmlns:inkscape="http://www.inkscape.org/namespaces/inkscape"
   version="1.0"
   width="956.47601"
   height="1726.4995"
   id="svg2"
   sodipodi:version="0.32"
   inkscape:version="0.46"
   sodipodi:docname="onion.svg"
   inkscape:output_extension="org.inkscape.output.svg.inkscape"
   inkscape:export-filename="/media/OLEG/Vector Art/my_folder/onion.png"
   inkscape:export-xdpi="10.444591"
   inkscape:export-ydpi="10.444591">
  <metadata
     id="metadata75">
    <rdf:RDF>
      <cc:Work
         rdf:about="">
        <dc:format>image/svg+xml</dc:format>
        <dc:type
           rdf:resource="http://purl.org/dc/dcmitype/StillImage" />
      </cc:Work>
    </rdf:RDF>
  </metadata>
  <sodipodi:namedview
     inkscape:window-height="727"
     inkscape:window-width="1024"
     inkscape:pageshadow="2"
     inkscape:pageopacity="0.0"
     guidetolerance="10.0"
     gridtolerance="10.0"
     objecttolerance="10.0"
     borderopacity="1.0"
     bordercolor="#666666"
     pagecolor="#ffffff"
     id="base"
     showgrid="false"
     inkscape:zoom="0.20324445"
     inkscape:cx="1247.2997"
     inkscape:cy="663.03476"
     inkscape:window-x="0"
     inkscape:window-y="0"
     inkscape:current-layer="g47664" />
  <defs
     id="defs4">
    <inkscape:perspective
       sodipodi:type="inkscape:persp3d"
       inkscape:vp_x="0 : 859.33649 : 1"
       inkscape:vp_y="0 : 1000 : 0"
       inkscape:vp_z="948.56134 : 859.33649 : 1"
       inkscape:persp3d-origin="474.28067 : 572.89099 : 1"
       id="perspective77" />
    <linearGradient
       id="linearGradient3886">
      <stop
         id="stop3896"
         style="stop-color:#daae00;stop-opacity:0"
         offset="0" />
      <stop
         id="stop3900"
         style="stop-color:#ebb000;stop-opacity:0.49803922"
         offset="0.81959414" />
      <stop
         id="stop3890"
         style="stop-color:#fdb300;stop-opacity:1"
         offset="1" />
    </linearGradient>
    <inkscape:path-effect
       effect="skeletal"
       id="path-effect3840" />
    <inkscape:path-effect
       effect="skeletal"
       id="path-effect3836" />
    <inkscape:path-effect
       effect="skeletal"
       id="path-effect3832" />
    <inkscape:path-effect
       effect="skeletal"
       id="path-effect3828" />
    <inkscape:path-effect
       effect="skeletal"
       id="path-effect3824" />
    <inkscape:path-effect
       effect="skeletal"
       id="path-effect3820" />
    <inkscape:path-effect
       effect="skeletal"
       id="path-effect3815" />
    <inkscape:path-effect
       effect="skeletal"
       id="path-effect3813" />
    <inkscape:path-effect
       effect="skeletal"
       id="path-effect3807" />
    <inkscape:path-effect
       effect="skeletal"
       id="path-effect3803" />
    <inkscape:path-effect
       effect="skeletal"
       id="path-effect3799" />
    <inkscape:path-effect
       effect="skeletal"
       id="path-effect3795" />
    <inkscape:path-effect
       effect="skeletal"
       id="path-effect3783" />
    <inkscape:path-effect
       effect="skeletal"
       id="path-effect3779" />
    <inkscape:path-effect
       effect="skeletal"
       id="path-effect3777" />
    <inkscape:path-effect
       effect="skeletal"
       id="path-effect3775" />
    <inkscape:path-effect
       effect="skeletal"
       id="path-effect3767" />
    <inkscape:path-effect
       effect="skeletal"
       id="path-effect3761" />
    <inkscape:path-effect
       effect="skeletal"
       id="path-effect3757" />
    <inkscape:path-effect
       effect="skeletal"
       id="path-effect3743" />
    <inkscape:path-effect
       effect="skeletal"
       id="path-effect3741" />
    <inkscape:path-effect
       effect="skeletal"
       id="path-effect3739" />
    <inkscape:path-effect
       effect="skeletal"
       id="path-effect3731" />
    <inkscape:path-effect
       effect="skeletal"
       id="path-effect3727" />
    <inkscape:path-effect
       effect="skeletal"
       id="path-effect3723" />
    <inkscape:path-effect
       effect="skeletal"
       id="path-effect3719" />
    <inkscape:path-effect
       effect="skeletal"
       id="path-effect3715" />
    <inkscape:path-effect
       effect="skeletal"
       id="path-effect3711" />
    <inkscape:path-effect
       effect="skeletal"
       id="path-effect3703" />
    <inkscape:path-effect
       effect="skeletal"
       id="path-effect3699" />
    <inkscape:path-effect
       effect="skeletal"
       id="path-effect3695" />
    <inkscape:path-effect
       effect="skeletal"
       id="path-effect3691" />
    <inkscape:path-effect
       effect="skeletal"
       id="path-effect3687" />
    <inkscape:path-effect
       effect="skeletal"
       id="path-effect3683" />
    <inkscape:path-effect
       effect="skeletal"
       id="path-effect3679" />
    <inkscape:path-effect
       effect="skeletal"
       id="path-effect3675" />
    <inkscape:path-effect
       effect="skeletal"
       id="path-effect3671" />
    <inkscape:path-effect
       id="path-effect2794" />
    <clipPath
       id="clipPath3878">
      <rect
         width="1251.3513"
         height="1413.6371"
         x="-74.247108"
         y="-919.80621"
         transform="scale(1,-1)"
         id="rect3880"
         style="opacity:0.27225132;fill:#d40000;fill-opacity:1;stroke:#ffcc00;stroke-width:16.07723999;stroke-linecap:round;stroke-linejoin:round;stroke-miterlimit:4;stroke-dasharray:none;stroke-opacity:1" />
    </clipPath>
    <radialGradient
       cx="1380.7047"
       cy="604.39673"
       r="478.23798"
       fx="1380.7047"
       fy="604.39673"
       id="radialGradient3898"
       xlink:href="#linearGradient3886"
       gradientUnits="userSpaceOnUse"
       gradientTransform="matrix(1.4839575,-5.42582e-3,1.8657e-3,0.5102666,-2154.0374,207.90192)" />
    <filter
       id="filter3923">
      <feGaussianBlur
         id="feGaussianBlur3925"
         stdDeviation="2.8035997"
         inkscape:collect="always" />
    </filter>
    <filter
       id="filter3931">
      <feGaussianBlur
         id="feGaussianBlur3933"
         stdDeviation="2.9191929"
         inkscape:collect="always" />
    </filter>
    <filter
       height="2.7566564"
       y="-0.8783282"
       width="1.3201108"
       x="-0.16005538"
       id="filter3986">
      <feGaussianBlur
         id="feGaussianBlur3988"
         stdDeviation="33.364422"
         inkscape:collect="always" />
    </filter>
    <clipPath
       id="clipPath3238">
      <path
         d="M -15.874459,842.75933 C -26.922462,830.71414 -47.233562,821.59644 -72.929262,817.14722 C -92.94576,813.68149 -126.14843,811.55252 -140.11893,812.83906 C -184.11663,816.89078 -222.39433,829.4817 -240.77083,845.94716 L -244.79063,849.5489 L -265.68383,841.48398 C -277.17503,837.04822 -302.20423,828.00483 -321.30413,821.38742 C -388.37323,798.15078 -424.67103,782.31402 -454.92833,763.087 C -529.69223,715.57837 -565.86663,650.04728 -572.66743,549.79854 C -574.28213,525.99696 -574.22113,524.82591 -570.41303,506.53444 C -556.27893,438.6415 -524.26813,397.34312 -454.57443,357.08626 C -445.66033,351.9372 -425.61673,341.02764 -410.03313,332.84281 C -324.90493,288.1317 -291.05653,266.4013 -260.80253,237.03796 C -225.18163,202.46561 -209.64193,173.01368 -191.49943,105.68935 C -187.69543,91.573456 -187.02037,92.282225 -186.50717,90.677035 C -185.79737,88.457115 -179.59706,91.98469 -174.22296,103.1438 C -162.79726,126.86948 -142.07379,127.98564 -120.20109,131.28866 C -92.424747,135.48318 -73.182491,122.61767 -59.048791,104.41577 C -47.322322,74.4819 -51.776464,65.128636 -29.533505,114.15857 C -12.712604,175.73384 3.9016407,208.5308 40.207538,234.67368 C 60.593038,249.35272 77.133638,256.1459 122.56957,268.49927 C 236.86973,299.5757 319.71243,359.41562 359.07783,439.33681 C 374.24883,470.1377 381.30843,498.32403 382.59153,533.21935 C 384.22333,577.5997 376.60143,616.4111 358.97743,653.46434 C 315.50493,744.86214 198.84683,810.7032 19.928138,844.82168 C 6.6413395,847.35546 -5.2489571,849.67333 -6.4946575,849.97258 C -7.7785572,850.28098 -11.840758,847.15722 -15.874459,842.75933 L -15.874459,842.75933 L -15.874459,842.75933 z"
         id="path3240"
         style="opacity:0.7;fill:url(#radialGradient3242);fill-opacity:1;stroke:none" />
    </clipPath>
    <radialGradient
       cx="1380.7047"
       cy="604.39673"
       r="478.23798"
       fx="1380.7047"
       fy="604.39673"
       id="radialGradient3242"
       xlink:href="#linearGradient3886"
       gradientUnits="userSpaceOnUse"
       gradientTransform="matrix(1.4839575,-5.42582e-3,1.8657e-3,0.5102666,-2154.0374,207.90192)" />
    <radialGradient
       inkscape:collect="always"
       xlink:href="#linearGradient3886"
       id="radialGradient47682"
       gradientUnits="userSpaceOnUse"
       gradientTransform="matrix(1.4839575,-5.42582e-3,1.8657e-3,0.5102666,-2154.0374,207.90192)"
       cx="1380.7047"
       cy="604.39673"
       fx="1380.7047"
       fy="604.39673"
       r="478.23798" />
    <radialGradient
       inkscape:collect="always"
       xlink:href="#linearGradient3886"
       id="radialGradient47684"
       gradientUnits="userSpaceOnUse"
       gradientTransform="matrix(1.4839575,-5.42582e-3,1.8657e-3,0.5102666,-2154.0374,207.90192)"
       cx="1380.7047"
       cy="604.39673"
       fx="1380.7047"
       fy="604.39673"
       r="478.23798" />
    <inkscape:perspective
       id="perspective10"
       inkscape:persp3d-origin="0.5 : 0.33333333 : 1"
       inkscape:vp_z="1 : 0.5 : 1"
       inkscape:vp_y="0 : 1000 : 0"
       inkscape:vp_x="0 : 0.5 : 1"
       sodipodi:type="inkscape:persp3d" />
    <inkscape:path-effect
       vertical="false"
       scale_y_rel="false"
       deactivate_knotholder="false"
       prop_scale="1"
       is_visible="true"
       bendpath="m 287.06982,42.884239 23.01698,0"
       id="path-effect3579"
       effect="bend_path" />
    <inkscape:path-effect
       vertical="false"
       scale_y_rel="false"
       deactivate_knotholder="false"
       prop_scale="1.22"
       is_visible="false"
       bendpath="m 287.06982,42.884239 23.01698,0"
       id="path-effect3581"
       effect="bend_path" />
    <inkscape:path-effect
       deactivate_knotholder="false"
       nr_y="5"
       nr_x="5"
       is_visible="true"
       id="path-effect3583"
       effect="construct_grid" />
  </defs>
  <g
     transform="translate(573.66915,864.90866)"
     id="layer1">
    <g
       id="g47664">
      <g
         transform="matrix(1,0,0,1.0055327,-2.8697738,1.8529783)"
         id="g2444">
        <path
           sodipodi:nodetypes="csssssscc"
           style="fill:none;stroke:#ffcc00;stroke-width:16;filter:url(#filter3931)"
           id="path3785"
           d="M -47.570495,79.58783 C -46.127395,79.58783 -33.457695,90.862904 -26.066395,118.71842 C -10.151295,178.69777 12.32651,216.90667 46.677305,242.37197 C 65.965105,256.67057 81.615005,263.28767 124.60437,275.32087 C 232.74957,305.59187 311.13117,363.88087 348.37677,441.73067 C 362.73087,471.73327 369.41027,499.18907 370.62427,533.17997 C 372.16817,576.41007 364.95677,614.21557 348.28177,650.30847 C 307.15027,739.33747 196.77417,803.47207 27.490005,836.70627 C 14.91861,839.17437 -12.937008,827.97611 -3.6602196,838.66548" />
        <path
           sodipodi:nodetypes="ccssssssssc"
           style="fill:none;stroke:#ffcc00;stroke-width:16;filter:url(#filter3923)"
           id="path3789"
           d="M -238.87939,839.37227 L -270.33293,832.12801 C -281.20533,827.80721 -304.88673,818.99821 -322.95813,812.55231 C -386.41563,789.91791 -420.75873,774.49161 -449.38673,755.76291 C -520.12464,709.48561 -554.35104,645.65291 -560.7856,548.00241 C -562.31333,524.81771 -562.25559,523.67701 -558.65267,505.85961 C -545.27962,439.72631 -514.99261,399.49831 -449.05193,360.28481 C -440.61783,355.26921 -421.65353,344.64241 -406.90913,336.66971 C -326.36503,293.11741 -294.33933,271.95021 -265.71453,243.34791 C -232.01173,209.67161 -211.59454,186.6973 -194.42904,121.11792 C -190.82994,107.36792 -183.20223,89.12434 -182.71663,87.56075" />
      </g>
      <path
         style="fill:#008000;fill-opacity:1;stroke:#008000;stroke-width:4.72511673"
         id="path3664"
         d="M 158.53681,-808.92998 C -25.881719,-347.45784 -0.4501531,-162.50793 -58.980753,87.887191 C -63.377967,106.69856 -81.375147,117.77258 -88.709459,135.6042 C -97.934859,133.04608 -117.94001,116.69668 -100.55569,23.104435 C -42.686574,-261.99468 21.693335,-550.35099 158.53681,-808.92998 z M -92.847428,-600.37857 C -145.30388,-463.69201 -126.92346,-324.10397 -122.98748,-180.62057 C -118.61607,-26.404615 -115.05943,109.47741 -115.04824,121.35436 C -115.03414,145.40192 -99.93257,148.01788 -102.56245,124.60708 C -110.76078,51.626688 -79.442097,4.7637774 -100.51902,-172.08488 C -105.57739,-228.72075 -126.36797,-453.55302 -92.847428,-600.37857 z M -332.89697,-356.63723 C -334.77294,-356.63723 -328.99595,-347.85487 -320.02639,-337.12088 C -260.30882,-265.65542 -223.20843,-160.18141 -186.42421,42.838148 L -178.37998,87.278513 L -155.29688,114.27613 C -142.60683,129.12808 -131.66213,140.63233 -130.9547,139.81004 C -130.24738,138.98779 -132.81702,111.00679 -136.65558,77.642313 C -152.88774,-63.446098 -208.06468,-216.65008 -272.81085,-300.36508 C -288.6899,-320.89617 -326.84276,-356.63723 -332.89697,-356.63723 z M -300.22816,-831.13731 C -301.92775,-829.16145 -292.38013,-780.33024 -262.0012,-635.85179 C -185.55456,-272.28132 -162.42491,-140.72165 -138.96117,63.972156 C -129.36777,147.66441 -131.62192,141.63333 -112.24073,135.24751 C -103.79427,132.46452 -103.86847,129.62285 -115.59827,21.320789 C -135.92965,-166.40074 -159.57592,-309.9905 -192.26214,-444.02229 C -208.19446,-509.35403 -298.50138,-833.14477 -300.22816,-831.13731 z" />
      <path
         style="opacity:0.8;fill:#ffffff;stroke:none"
         id="path2811"
         d="M -60.481052,-102.11976 C -84.587791,5.5043013 -126.441,61.01162 -183.6308,71.505228 L -188.13671,71.505228 C -187.99786,71.724248 -187.88288,71.943037 -187.74643,72.161478 C -189.57398,72.425239 -191.42337,72.643047 -193.28125,72.817728 L -187.35616,72.786478 C -168.24849,103.81349 -172.75551,128.76591 -121.61243,130.13024 C -63.187897,128.56719 -58.800455,91.382846 -48.772778,72.036478 L -45.898929,72.005228 C -40.240613,23.009034 -44.326392,-43.743521 -60.481052,-102.11976 L -60.481052,-102.11976 z" />
      <path
         style="opacity:0.1;fill:#ffffff;fill-opacity:1;stroke:none"
         id="path3818"
         clip-path="url(#clipPath3878)"
         transform="translate(-569.73336,-833.50916)"
         inkscape:path-effect="#path-effect3820"
         inkscape:original-d="M 478.57143,215.84487 C 399.50003,463.5528 508.00804,1140.9304 518.57143,1400.1306 M 752.89852,-24.88033 C 586.77423,310.13614 521.86683,636.21169 491.26893,995.13313 C 467.48783,1274.0909 495.26533,1540.4163 494.01823,1773.0783 M 758.18422,-27.02319 C 590.63133,310.85043 545.00973,636.21169 507.26893,995.13313 C 477.99143,1273.5677 511.26533,1540.4163 510.01823,1773.0783 M 750.46992,-19.88033 C 574.34563,315.13614 505.86683,636.21169 475.26893,995.13313 C 451.48785,1274.0909 479.26533,1540.4163 478.01823,1773.0783 M 233.80636,462.88619 C 336.49102,534.90638 410.21391,930.98198 438.78534,1054.4163 M 217.42858,460.13058 C 386.05865,589.48495 400.95082,850.47545 464.57143,992.98772 M 257.34735,-31.39952 C 418.41102,482.85541 486.61204,888.2156 482.57143,1584.4163 M 251.42857,-21.29799 C 390.77396,474.26911 470.24511,838.31713 468.57143,1584.4163"
         d="M 478.571,215.845 C 467.056,251.919 461.19,289.569 457.155,327.22 C 452.113,374.271 450.339,421.623 449.978,468.941 C 449.565,523.004 451.123,577.069 453.694,631.072 C 453.694,631.073 453.694,631.073 453.694,631.073 C 456.437,688.667 460.373,746.2 464.958,803.678 C 464.958,803.678 464.958,803.678 464.958,803.678 C 473.928,916.119 485.479,1028.34 496.746,1140.57 C 501.576,1188.69 506.372,1236.81 510.577,1284.98 C 513.922,1323.32 517.005,1361.68 518.571,1400.13 M 752.899,-24.8803 C 673.812,134.611 613.229,303.156 571.261,476.162 C 529.957,646.43 506.151,820.56 491.269,995.133 C 479.756,1130.18 480.233,1265.98 484.193,1401.47 C 487.814,1525.34 494.682,1649.16 494.018,1773.08 M 758.184,-27.0232 C 679.129,132.392 622.29,302.379 584.047,476.162 C 584.047,476.162 584.047,476.162 584.047,476.163 C 546.443,647.042 525.566,821.125 507.269,995.133 C 493.096,1129.92 493.462,1265.82 498.132,1401.27 C 502.405,1525.21 510.683,1649.07 510.018,1773.08 M 750.47,-19.8803 C 750.47,-19.8802 750.47,-19.88 750.47,-19.8798 C 707.966,60.9682 670.09,144.261 637.47,229.577 C 606.34,310.998 580.012,394.242 558.297,478.662 C 514.808,647.731 490.097,821.191 475.269,995.133 C 463.756,1130.18 464.233,1265.98 468.193,1401.47 C 468.193,1401.47 468.193,1401.47 468.193,1401.47 C 471.814,1525.34 478.682,1649.16 478.018,1773.08 M 233.806,462.886 C 240.789,467.784 247.016,473.697 252.716,480.042 C 259.411,487.494 265.392,495.566 270.924,503.918 C 270.924,503.918 270.924,503.918 270.924,503.918 C 284.366,524.212 295.275,546.084 305.137,568.338 C 316.836,594.738 326.949,621.818 336.255,649.153 C 346.397,678.949 355.54,709.079 364.088,739.371 C 380.948,799.114 395.496,859.487 409.144,920.044 C 414.882,945.506 420.444,971.008 425.986,996.514 C 430.183,1015.83 434.328,1035.16 438.785,1054.42 C 438.785,1054.42 438.785,1054.42 438.785,1054.42 M 217.429,460.131 C 238.16,476.034 257.023,494.335 273.854,514.32 C 290.527,534.119 305.226,555.545 318.239,577.92 C 318.239,577.92 318.239,577.92 318.239,577.921 C 344.523,623.116 363.991,671.977 380.379,721.625 C 380.379,721.625 380.379,721.625 380.379,721.625 C 396.284,769.811 409.197,818.92 422.829,867.797 C 434.657,910.206 446.624,952.784 464.571,992.988 M 257.347,-31.3995 C 295.784,91.322 331.148,215.046 361.056,340.12 C 390.128,461.705 413.913,584.563 431.873,708.279 C 451.239,841.67 463.936,975.988 471.734,1110.55 C 471.734,1110.55 471.734,1110.55 471.734,1110.55 C 480.877,1268.31 483.489,1426.4 482.571,1584.42 M 251.429,-21.298 C 251.429,-21.2978 251.429,-21.2976 251.429,-21.2975 C 284.546,96.4803 316.505,214.614 344.379,333.742 C 371.759,450.76 394.987,568.771 412.882,687.61 C 432.893,820.501 446.363,954.337 454.944,1088.45 C 465.507,1253.53 468.942,1419 468.571,1584.42" />
      <path
         style="opacity:0.36649218;fill:#ffffff;fill-opacity:1;stroke:none"
         id="path2836"
         d="M -235.89471,852.36218 C -216.74825,826.13911 -160.52099,816.08993 -126.1812,814.2389 C -92.578313,817.58127 -38.09949,817.00744 -18.631571,852.36218 C -106.62912,831.99291 -172.24156,840.89647 -235.89471,852.36218 L -235.89471,852.36218 z" />
      <path
         style="opacity:0.36649218;fill:none;stroke:none"
         id="path62"
         d="M -235.89471,852.36218 C -216.74825,826.13911 -160.52099,816.08993 -126.1812,814.2389 C -92.578313,817.58127 -38.09949,817.00744 -18.631571,852.36218 M -55.77443,72.362183 C -64.780614,91.553782 -68.239535,129.4374 -120.16166,131.0145 C -165.82875,129.63136 -161.09467,103.98261 -178.75185,72.362183 M -178.75185,72.362183 C -199.93532,105.25968 -191.609,196.1717 -280.18043,263.79075 C -410.5231,361.61673 -533.64044,362.15528 -555.83523,527.65805 C -553.91279,786.19854 -353.87455,796.92214 -235.89471,852.36218 M -18.631571,852.36218 C 298.89657,795.99828 362.85714,666.53065 362.85714,542.81034 C 362.85714,440.32164 291.68501,318.84352 101.46996,268.68562 C -48.530044,236.78086 -27.376314,73.657792 -55.77443,72.362183" />
      <path
         style="fill:#ffeeaa;fill-opacity:1;stroke:#ffeeaa;stroke-width:16"
         id="path3627"
         transform="translate(-563.03823,-851.98367)"
         d="M 541.62775,1689.3946 C 531.1747,1677.6616 511.95738,1668.7802 487.64535,1664.4463 C 468.70679,1661.0704 437.29208,1658.9966 424.07392,1660.2498 C 382.44538,1664.1965 346.22899,1676.4611 328.842,1692.4998 L 325.03866,1696.0082 L 305.27058,1688.1523 C 294.39813,1683.8315 270.71678,1675.0225 252.64535,1668.5766 C 189.18786,1645.9422 154.84482,1630.5159 126.21678,1611.7872 C 55.47886,1565.5099 21.252465,1501.6772 14.817908,1404.0267 C 13.290178,1380.842 13.347912,1379.7013 16.950835,1361.8839 C 30.323888,1295.7506 60.610893,1255.5226 126.55157,1216.3091 C 134.9857,1211.2935 153.94999,1200.6667 168.69442,1192.694 C 249.23848,1149.1417 281.26419,1127.9745 309.88893,1099.3722 C 343.59173,1065.6959 358.29463,1037.0073 375.46018,971.42792 C 379.05928,957.67792 382.4013,945.14862 382.8869,943.58503 C 383.55848,941.42265 385.37002,944.16302 390.45463,955.03293 C 401.26512,978.14361 410.05948,985.4928 430.75433,988.7102 C 457.03489,992.79601 481.32336,984.43858 494.69596,966.70851 C 500.27839,959.30704 509.07065,942.31761 509.07279,938.92792 C 509.0734,937.94578 509.68955,937.14221 510.44199,937.14221 C 511.88505,937.14221 514.55479,945.56013 521.94608,973.41565 C 537.86122,1033.395 560.33899,1071.6039 594.68976,1097.0692 C 613.97753,1111.3678 629.62749,1117.9849 672.61678,1130.0181 C 780.76195,1160.2891 859.14355,1218.5781 896.38918,1296.4279 C 910.74329,1326.4305 917.42265,1353.8863 918.63663,1387.8772 C 920.1806,1431.1073 912.96915,1468.9128 896.29416,1505.0057 C 855.16268,1594.0347 744.78662,1658.1693 575.50249,1691.4035 C 562.93106,1693.8716 551.68106,1696.1294 550.50249,1696.4209 C 549.28765,1696.7213 545.44425,1693.6785 541.62775,1689.3946 L 541.62775,1689.3946 L 541.62775,1689.3946 z" />
      <path
         sodipodi:nodetypes="csscccsssssssssssccssssscsccc"
         style="opacity:0.7;fill:url(#radialGradient47682);fill-opacity:1;stroke:none"
         id="path3882"
         d="M -15.874459,842.75933 C -26.922462,830.71414 -50.9237,830.82178 -76.6194,826.37256 C -96.635898,822.90683 -133.52871,820.16284 -147.49921,821.44938 C -191.49691,825.5011 -222.39433,829.4817 -240.77083,845.94716 L -244.79063,849.5489 L -265.68383,841.48398 C -277.17503,837.04822 -302.20423,828.00483 -321.30413,821.38742 C -388.37323,798.15078 -424.67103,782.31402 -454.92833,763.087 C -529.69223,715.57837 -565.86663,650.04728 -572.66743,549.79854 C -574.28213,525.99696 -574.22113,524.82591 -570.41303,506.53444 C -556.27893,438.6415 -524.26813,397.34312 -454.57443,357.08626 C -445.66033,351.9372 -425.61673,341.02764 -410.03313,332.84281 C -324.90493,288.1317 -291.05653,266.4013 -260.80253,237.03796 C -225.18163,202.46561 -209.64193,173.01368 -191.49943,105.68935 C -187.69543,91.573456 -187.02037,92.282225 -186.50717,90.677035 C -185.79737,88.457115 -179.59706,91.98469 -174.22296,103.1438 C -162.79726,126.86948 -142.07379,127.98564 -120.20109,131.28866 C -92.424747,135.48318 -73.182491,122.61767 -59.048791,104.41577 C -47.322322,74.4819 -51.776464,65.128636 -29.533505,114.15857 C -12.712604,175.73384 3.9016407,208.5308 40.207538,234.67368 C 60.593038,249.35272 77.133638,256.1459 122.56957,268.49927 C 236.86973,299.5757 319.71243,359.41562 359.07783,439.33681 C 374.24883,470.1377 381.30843,498.32403 382.59153,533.21935 C 384.22333,577.5997 376.60143,616.4111 358.97743,653.46434 C 315.50493,744.86214 198.84683,810.7032 19.928138,844.82168 C 6.6413395,847.35546 -5.2489571,849.67333 -6.4946575,849.97258 C -7.7785572,850.28098 -11.840758,847.15722 -15.874459,842.75933 L -15.874459,842.75933 L -15.874459,842.75933 z" />
      <path
         style="opacity:0.25;fill:#ffffff;fill-opacity:1;stroke:none"
         id="path3759"
         inkscape:path-effect="#path-effect3761"
         inkscape:original-d="M -82.104929,113.89292 C -79.415336,283.99035 -128.16872,346.17256 -89.383337,494.0469 C -58.978257,611.31041 -136.19485,721.7993 -136.19485,810.10612 M -142.15353,126.52237 C -233.74965,459.47694 -410.58935,307.14067 -419.45446,549.50377 C -404.20166,675.85866 -219.17238,746.7993 -219.17238,835.10612 M -124.62054,132.72542 C -161.66843,374.76626 -294.06142,342.63813 -300.90622,528.43269 C -299.79556,648.72666 -195.88667,737.08502 -195.88667,825.39184 M -106.34859,129.0452 C -103.659,299.14263 -241.3058,384.55836 -202.52042,532.4327 C -172.11534,649.69621 -164.45809,727.51359 -164.45809,815.82041 M -158.8591,99.045205 C -250.45522,431.99977 -557.60461,356.43509 -497.77934,602.8388 C -462.32349,713.03124 -236.60095,762.51359 -236.60095,850.82041"
         d="M -82.1049,113.893 C -81.5222,150.747 -83.4641,187.627 -87.5617,224.257 C -90.8533,253.682 -95.5592,282.93 -99.2801,312.304 C -102.804,340.12 -105.116,368.158 -104.23,396.183 C -104.23,396.183 -104.23,396.183 -104.23,396.184 C -103.186,429.233 -97.7722,462.063 -89.3834,494.047 C -89.3834,494.047 -89.3833,494.047 -89.3833,494.047 C -82.0974,522.147 -80.8398,551.613 -83.8705,580.484 C -86.8079,608.465 -93.5316,635.919 -101.387,662.935 C -108.874,688.685 -117.498,714.1 -124.605,739.958 C -127.873,751.846 -130.807,763.837 -132.936,775.981 C -134.913,787.25 -136.195,798.665 -136.195,810.106 M -142.154,126.522 C -151.938,162.089 -163.949,197.14 -180.003,230.351 C -180.003,230.351 -180.003,230.351 -180.003,230.351 C -191.771,254.695 -205.798,278.034 -222.877,298.996 C -236.114,315.243 -251.23,329.95 -267.808,342.77 C -267.808,342.77 -267.808,342.77 -267.808,342.77 C -281.748,353.55 -296.69,362.963 -311.828,371.985 C -311.828,371.985 -311.828,371.985 -311.828,371.985 C -325.368,380.054 -339.095,387.86 -351.97,396.953 C -358.136,401.308 -364.093,405.97 -369.66,411.068 C -375.326,416.256 -380.579,421.901 -385.267,427.988 C -390.317,434.545 -394.705,441.607 -398.421,449.002 C -402.669,457.456 -406.049,466.333 -408.751,475.4 C -408.751,475.4 -408.751,475.4 -408.751,475.4 C -415.895,499.382 -418.54,524.498 -419.454,549.504 C -417.579,565.043 -412.998,580.206 -406.469,594.431 C -406.469,594.431 -406.469,594.431 -406.469,594.431 C -399.848,608.86 -391.296,622.35 -381.726,635.017 C -371.83,648.115 -360.844,660.361 -349.381,672.113 C -337.817,683.969 -325.75,695.324 -313.594,706.573 C -313.594,706.573 -313.594,706.573 -313.594,706.573 C -291.14,727.35 -267.938,747.521 -248.322,770.995 C -240.159,780.763 -232.646,791.179 -227.153,802.663 C -224.686,807.819 -222.649,813.191 -221.254,818.734 C -219.908,824.083 -219.172,829.591 -219.172,835.106 M -124.621,132.725 C -128.704,159.404 -134.396,185.872 -142.551,211.6 C -148.98,231.881 -156.979,251.682 -166.832,270.538 C -174.995,286.16 -184.447,301.096 -194.874,315.306 C -194.875,315.307 -194.875,315.307 -194.875,315.307 C -204.075,327.846 -214.024,339.816 -224.09,351.671 C -233.52,362.779 -243.043,373.821 -251.889,385.4 C -260.778,397.036 -268.941,409.26 -275.684,422.258 C -275.684,422.258 -275.684,422.258 -275.684,422.258 C -283.204,436.755 -288.922,452.17 -292.886,468.014 C -297.826,487.758 -300.157,508.093 -300.906,528.433 C -300.771,543.103 -299.077,557.747 -296.075,572.108 C -293.154,586.082 -289.01,599.785 -284.028,613.163 C -274.262,639.39 -261.32,664.306 -247.98,688.907 C -235.516,711.894 -222.513,734.651 -212.14,758.654 C -207.432,769.548 -203.298,780.715 -200.354,792.212 C -197.578,803.051 -195.887,814.203 -195.887,825.392 M -106.349,129.045 C -106.03,149.178 -107.704,169.338 -111.3,189.15 C -114.623,207.463 -119.575,225.462 -125.695,243.039 C -125.695,243.039 -125.695,243.039 -125.695,243.04 C -137.202,276.09 -152.869,307.502 -167.97,339.073 C -175.159,354.101 -182.206,369.21 -188.426,384.664 C -194.489,399.726 -199.757,415.135 -203.478,430.939 C -207.233,446.886 -209.368,463.237 -209.413,479.62 C -209.463,497.424 -207.037,515.211 -202.52,532.433 C -189.497,582.66 -178.603,633.507 -172.087,684.985 C -166.598,728.355 -164.458,772.104 -164.458,815.82 M -158.859,99.0452 C -169.102,136.278 -183.229,172.531 -202.174,206.181 C -217.901,234.115 -236.98,260.158 -258.87,283.578 C -258.87,283.578 -258.871,283.578 -258.871,283.578 C -278.157,304.212 -299.576,322.785 -322.122,339.797 C -322.122,339.797 -322.122,339.797 -322.122,339.797 C -342.508,355.179 -363.816,369.289 -385.102,383.399 C -404.13,396.011 -423.215,408.613 -440.985,422.943 C -440.985,422.943 -440.985,422.943 -440.985,422.943 C -449.086,429.477 -456.897,436.387 -464.131,443.869 C -464.131,443.869 -464.131,443.869 -464.131,443.869 C -471.047,451.022 -477.429,458.709 -482.942,466.991 C -482.943,466.991 -482.943,466.991 -482.943,466.991 C -488.44,475.249 -493.054,484.102 -496.567,493.379 C -500.311,503.267 -502.8,513.617 -504.15,524.103 C -505.69,536.071 -505.772,548.202 -504.838,560.233 C -504.838,560.233 -504.838,560.233 -504.838,560.233 C -503.723,574.601 -501.179,588.835 -497.779,602.839 C -497.779,602.839 -497.779,602.839 -497.779,602.839 C -493.242,616.939 -485.577,629.9 -476.377,641.51 C -476.377,641.51 -476.377,641.51 -476.377,641.51 C -466.329,654.19 -454.505,665.376 -442.012,675.655 C -414.638,698.179 -384.145,716.556 -353.894,735.037 C -353.894,735.037 -353.894,735.037 -353.894,735.037 C -339.123,744.061 -324.334,753.065 -309.891,762.605 C -309.891,762.605 -309.891,762.605 -309.891,762.606 C -296.921,771.173 -284.181,780.147 -272.424,790.315 C -262.555,798.849 -253.268,808.256 -246.369,819.331 C -243.369,824.147 -240.86,829.285 -239.145,834.694 C -237.493,839.902 -236.601,845.357 -236.601,850.82" />
      <path
         style="opacity:0.25;fill:#ffffff;fill-opacity:1;stroke:none"
         id="path3781"
         inkscape:path-effect="#path-effect3783"
         inkscape:original-d="M -16.724582,846.51366 C 37.154371,706.72081 343.78593,717.74386 340.05641,545.40539 C 329.11724,290.3749 -29.116141,355.11909 -53.752108,87.621061 M -48.763174,823.73703 C -51.452764,683.94418 238.84091,645.62926 185.91339,497.75492 C 159.54893,414.83659 -49.119973,296.39646 -57.201192,90.911953 M -74.649905,815.3302 C -77.339495,675.53735 147.10354,640.93744 94.176017,493.0631 C 67.811548,410.14477 -52.783337,305.89882 -60.864557,100.41431 M -23.79565,838.43244 C -26.48524,698.63959 264.69455,719.5437 286.51832,541.36478 C 304.60056,389.75608 -37.50301,347.3273 -55.685755,91.335167 M -107.36708,811.28959 C -110.05667,671.49674 56.529218,601.18254 3.6017029,453.3082 C -22.762766,370.38987 -60.715879,315.33682 -68.7971,109.85231"
         d="M -16.7246,846.514 C -13.3938,837.872 -9.01202,829.643 -3.79781,821.988 C 1.4726,814.251 7.579,807.098 14.228,800.508 C 28.448,786.414 45.0169,774.872 62.2771,764.725 C 81.1226,753.648 100.878,744.196 120.824,735.25 C 141.526,725.964 162.481,717.254 183.269,708.164 C 183.269,708.164 183.269,708.164 183.269,708.164 C 203.507,699.315 223.627,690.137 243.014,679.553 C 260.856,669.812 278.149,658.873 293.459,645.5 C 300.564,639.295 307.217,632.557 313.133,625.21 C 318.891,618.058 323.94,610.323 328.007,602.09 C 328.007,602.09 328.007,602.09 328.007,602.09 C 332.152,593.698 335.262,584.797 337.256,575.652 C 339.418,565.736 340.276,555.552 340.056,545.405 C 339.418,530.52 337.545,515.671 334.102,501.176 C 334.102,501.175 334.102,501.175 334.102,501.175 C 331.022,488.212 326.675,475.542 321.005,463.485 C 315.686,452.175 309.209,441.416 301.763,431.379 C 294.458,421.532 286.233,412.379 277.373,403.903 C 259.246,386.558 238.574,372.059 217.141,359.017 C 194.767,345.402 171.501,333.32 148.288,321.189 C 124.826,308.926 101.351,296.632 78.7934,282.775 C 56.6804,269.192 35.4068,254.057 16.6355,236.137 C -2.29215,218.068 -18.4954,197.034 -30.2061,173.632 C -30.2061,173.632 -30.2062,173.632 -30.2062,173.632 C -36.5412,160.973 -41.59,147.679 -45.3898,134.043 C -49.6159,118.876 -52.3082,103.299 -53.7521,87.6211 M -48.7632,823.737 C -48.9254,815.306 -48.0024,806.853 -45.9894,798.664 C -44.0276,790.683 -41.0429,782.966 -37.2808,775.659 C -29.3537,760.264 -18.1373,746.759 -5.78678,734.622 C -5.78675,734.622 -5.78673,734.622 -5.7867,734.622 C 7.82131,721.249 22.8665,709.419 38.2635,698.152 C 54.3985,686.345 70.9882,675.175 87.4143,663.777 C 103.382,652.696 119.249,641.429 134.21,629.022 C 147.776,617.772 160.689,605.565 171.196,591.416 C 175.998,584.948 180.267,578.067 183.68,570.77 C 186.998,563.676 189.488,556.185 190.915,548.484 C 192.393,540.508 192.719,532.326 191.97,524.249 C 191.132,515.205 188.974,506.307 185.913,497.755 C 185.913,497.755 185.913,497.755 185.913,497.755 C 184.15,492.208 181.71,486.892 178.927,481.779 C 178.927,481.779 178.927,481.779 178.927,481.779 C 175.74,475.923 172.097,470.325 168.229,464.895 C 159.008,451.949 148.578,439.91 137.941,428.101 C 125.354,414.127 112.382,400.505 99.5353,386.769 C 85.2659,371.513 71.1213,356.133 57.4999,340.296 C 28.1032,306.117 1.00801,269.65 -19.5127,229.51 C -19.5127,229.51 -19.5128,229.51 -19.5128,229.51 C -30.2258,208.554 -39.1045,186.634 -45.516,163.989 C -52.252,140.198 -56.2295,115.619 -57.2012,90.912 M -74.6499,815.33 C -74.9642,798.994 -72.0034,782.608 -65.997,767.412 C -65.997,767.412 -65.997,767.412 -65.9969,767.412 C -60.1935,752.73 -51.7244,739.203 -41.9626,726.796 C -31.8363,713.925 -20.3478,702.184 -8.45878,690.921 C 3.66224,679.438 16.2378,668.447 28.6023,657.227 C 40.6133,646.328 52.4672,635.218 63.3084,623.155 C 73.4705,611.847 82.7658,599.648 89.7475,586.143 C 96.5685,572.95 100.979,558.45 102.007,543.633 C 103.197,526.493 99.9658,509.239 94.176,493.063 C 90.6246,481.894 85.6973,471.204 80.2761,460.813 C 80.2761,460.813 80.2761,460.813 80.2761,460.813 C 74.0108,448.804 67.055,437.168 59.9648,425.627 C 43.0523,398.097 25.4726,370.955 9.79951,342.701 C 9.79947,342.701 9.79944,342.701 9.7994,342.701 C -8.94887,308.903 -25.1036,273.587 -36.9377,236.794 C -51.1137,192.719 -59.0452,146.677 -60.8646,100.414 M -23.7956,838.432 C -23.9537,830.216 -23.0835,821.965 -20.9937,814.017 C -19.0416,806.592 -16.0248,799.455 -12.1292,792.84 C -8.19061,786.152 -3.37731,779.999 1.97282,774.376 C 1.97288,774.376 1.97293,774.376 1.97298,774.376 C 7.64417,768.416 13.9099,763.039 20.4873,758.097 C 35.0928,747.123 51.142,738.214 67.4534,729.987 C 85.4447,720.912 103.856,712.701 122.169,704.293 C 141.034,695.632 159.839,686.796 178.033,676.801 C 195.745,667.07 212.924,656.233 228.446,643.293 C 228.447,643.293 228.447,643.293 228.447,643.292 C 243.413,630.815 256.788,616.264 266.808,599.553 C 271.929,591.013 276.164,581.942 279.407,572.528 C 279.407,572.528 279.407,572.528 279.407,572.528 C 282.884,562.436 285.221,551.96 286.518,541.365 C 287.597,532.318 287.419,523.114 285.855,514.139 C 284.338,505.439 281.532,496.98 277.752,488.999 C 269.513,471.606 256.961,456.576 243.234,443.087 C 227.096,427.228 209.184,413.288 190.983,399.846 C 170.55,384.754 149.634,370.331 129.016,355.494 C 129.016,355.494 129.016,355.494 129.016,355.494 C 107.232,339.817 85.7345,323.704 65.3481,306.249 C 65.3481,306.249 65.348,306.249 65.348,306.249 C 44.6811,288.554 25.1362,269.459 7.99729,248.329 C -9.37912,226.906 -24.2069,203.329 -35.0195,177.952 C -35.0196,177.952 -35.0196,177.952 -35.0196,177.952 C -46.709,150.517 -53.5729,121.081 -55.6858,91.3352 M -107.367,811.29 C -107.688,794.625 -105.531,777.932 -101.2,761.837 C -97.0395,746.372 -90.9349,731.473 -83.7199,717.175 C -76.4874,702.842 -68.1579,689.088 -59.4823,675.58 C -59.4823,675.58 -59.4822,675.58 -59.4822,675.58 C -50.8076,662.073 -41.7733,648.801 -33.0435,635.329 C -24.478,622.112 -16.1895,608.693 -8.95952,594.7 C -1.89989,581.037 4.13535,566.797 8.2134,551.969 C 12.3751,536.836 14.4138,521.099 13.9192,505.413 C 13.9192,505.413 13.9192,505.413 13.9192,505.413 C 13.3589,487.643 9.59273,470.047 3.6017,453.308 C 3.60168,453.308 3.60166,453.308 3.60163,453.308 C -2.80589,433.156 -10.3762,413.397 -17.6967,393.558 C -25.7201,371.815 -33.2687,349.879 -39.4539,327.543 C -47.5424,298.333 -53.4501,268.543 -57.783,238.546 C -63.9408,195.914 -67.1044,152.893 -68.7971,109.852" />
      <path
         style="opacity:0.8;fill:#d4aa00;fill-opacity:1;stroke:none;filter:url(#filter3986)"
         id="path3935"
         clip-path="url(#clipPath3238)"
         d="M 164.79619,288.27974 C 164.79619,331.7311 52.801758,366.95542 -85.350379,366.95542 C -223.50252,366.95542 -335.49695,331.7311 -335.49695,288.27974 C -335.49695,257.77677 -276.94838,300.59357 -196.34074,317.17505 C -163.18107,323.99625 -126.51899,311.59633 -85.350379,311.59633 C -16.27431,311.59633 20.057844,320.40251 66.417325,297.55173 C 111.28833,275.43479 164.79619,266.55418 164.79619,288.27974 L 164.79619,288.27974 z" />
      <path
         sodipodi:nodetypes="csscczcccc"
         d="M -15.259458,843.98942 C -26.307458,831.94422 -46.618538,822.82652 -72.314238,818.37732 C -92.330738,814.91152 -125.53339,812.78262 -139.50389,814.06912 C -183.50159,818.12082 -221.77929,830.71182 -240.15579,847.17722 L -244.17559,850.77902 C -186.85697,860.25252 -188.35596,858.39087 -123.35634,859.78737 C -58.36462,861.18377 -60.448078,865.79912 -5.8796576,851.20262 C -7.1635576,851.51102 -11.225758,848.38732 -15.259458,843.98942 L -15.259458,843.98942 L -15.259458,843.98942 z"
         id="path3265"
         style="opacity:1;fill:#ececec;fill-opacity:1;stroke:none" />
      <path
         sodipodi:nodetypes="csscccsssssssssssccssssscsccc"
         style="opacity:0.89772728;fill:url(#radialGradient47684);fill-opacity:1;stroke:none"
         id="path3250"
         d="M -15.874459,842.75933 C -26.922462,830.71414 -50.308677,832.05183 -76.004377,827.60261 C -96.020875,824.13688 -131.68364,818.9328 -145.65414,820.21934 C -189.65184,824.27106 -222.39433,829.4817 -240.77083,845.94716 L -244.79063,849.5489 L -265.68383,841.48398 C -277.17503,837.04822 -302.20423,828.00483 -321.30413,821.38742 C -388.37323,798.15078 -424.67103,782.31402 -454.92833,763.087 C -529.69223,715.57837 -565.86663,650.04728 -572.66743,549.79854 C -574.28213,525.99696 -574.22113,524.82591 -570.41303,506.53444 C -556.27893,438.6415 -524.26813,397.34312 -454.57443,357.08626 C -445.66033,351.9372 -425.61673,341.02764 -410.03313,332.84281 C -324.90493,288.1317 -291.05653,266.4013 -260.80253,237.03796 C -225.18163,202.46561 -209.64193,173.01368 -191.49943,105.68935 C -187.69543,91.573456 -187.02037,92.282225 -186.50717,90.677035 C -185.79737,88.457115 -179.59706,91.98469 -174.22296,103.1438 C -162.79726,126.86948 -142.07379,127.98564 -120.20109,131.28866 C -92.424747,135.48318 -73.182491,122.61767 -59.048791,104.41577 C -47.322322,74.4819 -51.776464,65.128636 -29.533505,114.15857 C -12.712604,175.73384 3.9016407,208.5308 40.207538,234.67368 C 60.593038,249.35272 77.133638,256.1459 122.56957,268.49927 C 236.86973,299.5757 319.71243,359.41562 359.07783,439.33681 C 374.24883,470.1377 381.30843,498.32403 382.59153,533.21935 C 384.22333,577.5997 376.60143,616.4111 358.97743,653.46434 C 315.50493,744.86214 198.84683,810.7032 19.928138,844.82168 C 6.6413395,847.35546 -5.2489571,849.67333 -6.4946575,849.97258 C -7.7785572,850.28098 -11.840758,847.15722 -15.874459,842.75933 L -15.874459,842.75933 L -15.874459,842.75933 z" />
      <path
         d="M -153.5625,824.65625 C -161.51746,824.9769 -169.4753,825.48339 -177.37404,826.50115 C -181.15005,826.98575 -184.90951,827.59318 -188.61645,828.46751 C -196.85675,830.29167 -204.93483,832.87254 -212.66774,836.26019 C -216.474,837.87469 -220.33259,839.6148 -223.4375,842.40625 C -224.44944,843.44014 -223.84085,845.28011 -222.5625,845.78125 C -219.28526,847.16543 -215.77886,847.90839 -212.26901,848.42912 C -205.57056,849.4789 -198.787,849.82348 -192.0589,850.63695 C -174.59242,852.22567 -157.08947,853.36997 -139.59289,854.56987 C -132.15784,855.06449 -124.7022,855.4102 -117.25,855.15625 C -108.86023,854.98577 -100.47974,854.51941 -92.097233,854.14937 C -82.28134,853.6336 -72.46391,853.05989 -62.688169,852.01123 C -57.007919,851.45331 -51.308585,850.99612 -45.690757,849.9521 C -41.590249,849.29731 -37.574513,848.17483 -33.658427,846.8075 C -32.052975,846.14576 -30.210826,845.67252 -29.0625,844.28125 C -28.570151,843.44584 -28.859795,842.3047 -29.699576,841.81655 C -31.453224,840.29775 -33.712434,839.54767 -35.84138,838.71411 C -41.419647,836.71963 -47.189338,835.32001 -52.947671,833.9585 C -61.121565,832.15966 -69.366561,830.6709 -77.663081,829.56555 C -83.809318,828.79328 -89.990997,828.27016 -96.1875,828.1875 C -94.711712,828.63685 -93.144045,828.77895 -91.631275,829.10681 C -84.236829,830.4218 -76.788319,831.42534 -69.409292,832.82571 C -64.166971,833.79535 -58.974639,835.02972 -53.887463,836.62949 C -49.721987,837.89164 -45.553492,839.33365 -41.824451,841.61223 C -41.074027,842.16822 -40.185904,842.96336 -40.59375,843.96875 C -41.375526,845.2785 -43.035007,845.47977 -44.332023,846.01897 C -47.580123,847.04544 -50.956883,847.56625 -54.302063,848.17174 C -59.989813,849.11403 -65.733647,849.70177 -71.49488,849.91874 C -82.435021,850.61966 -93.353633,851.70004 -104.31302,852.06787 C -113.14706,852.30579 -121.9797,851.92556 -130.81335,851.85778 C -138.39019,851.72465 -145.98149,851.53887 -153.51888,850.70338 C -156.31979,850.36082 -159.10451,849.89899 -161.90625,849.5625 C -162.58329,849.98856 -164.37789,849.13253 -163.21875,848.5625 C -162.18326,848.30525 -161.15579,848.77997 -160.10819,848.67603 C -148.48508,849.08036 -136.87368,849.80693 -125.24362,850.01503 C -119.6369,850.14294 -114.02497,850.23549 -108.41834,850.0961 C -101.71164,849.85719 -95.013567,849.40608 -88.318418,848.95747 C -81.478101,848.42794 -74.635577,847.79128 -67.868253,846.64358 C -64.158692,845.89714 -60.395259,845.29154 -56.84375,843.9375 C -55.912885,843.48576 -55.401028,842.036 -56.355382,841.3473 C -58.069126,839.91501 -60.261708,839.25256 -62.280571,838.37361 C -70.288793,835.33292 -78.82265,834.00687 -87.3125,833.1875 C -92.656604,832.69995 -98.026978,832.62747 -103.375,832.1875 C -115.83105,831.2424 -128.28693,830.27666 -140.75798,829.54829 C -147.93317,829.17959 -155.14588,829.17893 -162.30088,829.88413 C -169.03808,830.61603 -175.80086,831.46919 -182.34911,833.26486 C -186.59097,834.54626 -190.70684,836.45067 -194.16051,839.25426 C -194.85259,839.79734 -195.17607,840.79224 -194.66246,841.56674 C -194.17435,842.52459 -192.98503,842.49444 -192.10548,842.86272 C -188.70051,843.82085 -185.23696,844.54959 -181.81987,845.4642 C -179.87147,845.94365 -177.93955,846.4865 -176,847 C -175.73622,848.05478 -177.09749,848.69773 -177.96875,848.4375 C -186.32678,847.91504 -194.76285,847.85991 -203.00478,846.22785 C -205.56854,845.70074 -208.10932,844.9963 -210.46875,843.84375 C -211.80032,842.83473 -211.12477,840.54046 -209.625,840.09375 C -206.04473,837.63007 -201.98465,836.01692 -198.01436,834.30767 C -188.39064,830.4142 -178.12493,828.08607 -167.75444,827.53988 C -159.43229,827.10677 -151.09785,827.45513 -142.7706,827.49892 C -128.15985,827.71705 -113.54927,827.95302 -98.9375,828.09375 C -110.87784,826.94687 -122.82714,825.84031 -134.80759,825.20979 C -141.05439,824.92049 -147.30611,824.51926 -153.5625,824.65625 z M -134.78125,832.6875 C -124.85873,832.8475 -114.92695,832.91388 -105.02063,833.5521 C -97.097183,834.04899 -89.204601,835.12021 -81.473936,836.941 C -77.563364,837.88861 -73.408336,838.5844 -70.0625,840.96875 C -69.245572,841.80001 -69.978572,843.26597 -71.085726,843.31599 C -76.927895,844.51545 -82.833036,845.40156 -88.778241,845.88812 C -98.520767,846.8541 -108.32083,847.10485 -118.10619,846.96113 C -127.02394,846.94299 -135.94308,846.55552 -144.82079,845.70307 C -153.14292,844.83804 -161.39682,843.41068 -169.60653,841.81484 C -172.5606,841.22031 -175.51468,840.62578 -178.46875,840.03125 C -179.44126,839.57539 -179.32539,837.91923 -178.3125,837.59375 C -176.56859,836.492 -174.5551,835.91577 -172.6039,835.29941 C -166.4422,833.63347 -160.02117,833.51767 -153.69239,833.08534 C -147.3947,832.75002 -141.08699,832.66503 -134.78125,832.6875 z M -144.125,836.25 C -147.72432,836.50457 -151.2845,837.15402 -154.78125,838.03125 C -155.85961,838.56475 -155.24068,840.4386 -154.09375,840.34375 C -147.90591,841.72144 -141.60801,842.55961 -135.28753,843.01553 C -128.98596,843.49914 -122.66474,843.69016 -116.34846,843.87744 C -108.32088,844.04077 -100.26709,843.6357 -92.336524,842.3402 C -91.238679,842.13061 -90.093996,842.0434 -89.03125,841.71875 C -88.164469,841.00923 -88.878785,839.4745 -89.961693,839.56445 C -97.769834,838.23485 -105.65956,837.44597 -113.56417,836.98441 C -123.7399,836.42084 -133.93327,836.12909 -144.125,836.25 z"
         style="opacity:0.5;fill:#b3b3b3;fill-rule:evenodd;stroke:#b3b3b3;stroke-width:0.77439082000000004px;stroke-linecap:butt;stroke-linejoin:miter;stroke-opacity:1"
         id="path47630" />
    </g>
    <g
       transform="translate(1812.6581,1308.0634)"
       id="g4208" />
  </g>
</svg>
