<?xml version="1.0" encoding="utf-8"?>
<!-- Generator: Adobe Illustrator 19.0.0, SVG Export Plug-In . SVG Version: 6.00 Build 0)  -->
<svg version="1.1" id="Layer_1" xmlns="http://www.w3.org/2000/svg" xmlns:xlink="http://www.w3.org/1999/xlink" x="0px" y="0px"
	 viewBox="-232.8 345.2 103.6 103.6" style="enable-background:new -232.8 345.2 103.6 103.6;" xml:space="preserve">
<style type="text/css">
	.st0{fill:#299972;}
	.st1{fill:none;stroke:#299972;stroke-width:4;stroke-miterlimit:10;}
</style>
<g>
	<g>
		<g>
			<g>
				<path class="st0" d="M-185,396c0,0,0.4,1,0.4,2.7c0,5.8,3,5.2,3,5.2c0.7-1,0.9-4-0.2-5.4C-183.5,396.4-185,396-185,396z"/>
			</g>
			<g>
				<g>
					<polygon class="st0" points="-193,396 -199,396 -199,400 -196,400 -187,428 -183,428 					"/>
				</g>
			</g>
			<path class="st0" d="M-167.1,366c0,0-1.4,3.9-6,8.4c-10.9,10.6-8.2,18-5.6,21.4c0,0,1.6-6,6.9-13c1.7-2.2,3.4-6.9,3.4-8.4
				c0,0,0.2,4.9-2.9,10c-4.3,7-4.8,8.6-6.7,14.2c-2.9,8.5-5.6,21.3-5.6,21.3l1.2,4c1.1-5.8,3.4-16.4,6.7-25.9
				c5.3-1,12.7-7.9,12.7-14.9C-163,372.2-167.1,366-167.1,366z"/>
		</g>
		<path class="st0" d="M-164,395c0,0-1.5,1.3-4.5,2.1c-7.4,2-7.7,6.1-7.4,8.1c0,0,2.1-2.9,5.9-4.3c0,0-2.5,2.2-3.1,3
			c-1,1.2-1.8,2.8-1.8,2.8c2.4,0.7,6.3-0.2,8.4-3.3C-163.5,398.9-164,395-164,395z"/>
	</g>
	<circle class="st1" cx="-181" cy="397" r="49.8"/>
</g>
</svg>
