<?xml version="1.0" encoding="utf-8"?>
<!-- Generator: Adobe Illustrator 19.2.0, SVG Export Plug-In . SVG Version: 6.00 Build 0)  -->
<svg version="1.1" id="Layer_1" xmlns="http://www.w3.org/2000/svg" xmlns:xlink="http://www.w3.org/1999/xlink" x="0px" y="0px"
	 viewBox="0 0 71 71" style="enable-background:new 0 0 71 71;" xml:space="preserve">
<style type="text/css">
	.st0{fill:#059190;}
	.st1{fill:#164B8C;}
</style>
<g>
	<g>
		<path class="st0" d="M35.5,70.5c-19.3,0-35-15.7-35-35s15.7-35,35-35s35,15.7,35,35S54.8,70.5,35.5,70.5z M35.5,3.5
			c-17.7,0-32,14.4-32,32s14.4,32,32,32s32-14.4,32-32S53.2,3.5,35.5,3.5z"/>
	</g>
	<path class="st1" d="M8.8,30.1L8.8,30.1c0,0,0-0.1,0-0.1c0-0.1,0.1-0.2,0.2-0.2c0,0,0,0,0,0h5.7c0.3,0,0.5-0.2,0.5-0.5
		c0-0.2-0.1-0.4-0.3-0.5l-5.1-2.4c-0.1-0.1-0.2-0.2-0.2-0.3c0-0.1,0-0.2,0.1-0.2c0,0,13.4-11.9,43.2-0.4l8.2-3.9
		c0.1,0,0.2-0.1,0.3-0.1c0.4,0,0.6,0.3,0.6,0.6l0,0c0,0.1,0,0.2-0.1,0.3l-4.8,6l4.8,6c0.1,0.1,0.1,0.2,0.1,0.3
		c0,0.4-0.3,0.6-0.6,0.6c-0.1,0-0.2,0-0.3-0.1l-8.2-3.9C52.9,31.4,24.4,42.7,8.8,30.1 M17.9,27.6c1,0,1.8-0.8,1.8-1.8
		c0-1-0.8-1.8-1.8-1.8c-1,0-1.8,0.8-1.8,1.8C16.1,26.8,16.9,27.6,17.9,27.6"/>
	<path class="st1" d="M11.8,45L11.8,45C11.8,45,11.8,45,11.8,45c0-0.1,0-0.1,0.1-0.1c0,0,0,0,0,0h2.3c0.1,0,0.2-0.1,0.2-0.2
		c0-0.1,0-0.1-0.1-0.2l-2-1c0,0-0.1-0.1-0.1-0.1c0,0,0-0.1,0-0.1c0,0,5.4-4.8,17.3-0.1l3.3-1.6c0,0,0.1,0,0.1,0
		c0.1,0,0.2,0.1,0.2,0.2c0,0,0,0.1,0,0.1l-2,2.4l2,2.4c0,0,0,0.1,0,0.1c0,0.1-0.1,0.3-0.2,0.3h-0.1l-3.3-1.6
		C29.4,45.5,18,50.1,11.8,45 M15.8,44.5c0.6,0,1.1-0.5,1.1-1c0-0.6-0.5-1-1.1-1c-0.6,0-1,0.5-1,1C14.8,44,15.2,44.5,15.8,44.5"/>
	<path class="st1" d="M38.5,45L38.5,45C38.4,45,38.4,45,38.5,45c0-0.1,0-0.1,0.1-0.1c0,0,0,0,0,0h2.3c0.1,0,0.2-0.1,0.2-0.2
		c0-0.1,0-0.2-0.1-0.2l-2.1-1c0,0-0.1-0.1-0.1-0.1c0,0,0-0.1,0-0.1c0,0,5.4-4.8,17.3-0.1l3.3-1.6h0.1c0.1,0,0.2,0.1,0.2,0.2
		c0,0,0,0.1,0,0.1l-2,2.4l2,2.4c0,0,0,0.1,0,0.1c0,0.1-0.1,0.2-0.2,0.3h-0.1l-3.3-1.6C56.1,45.5,44.7,50.1,38.5,45 M42.5,44.5
		c0.6,0,1-0.5,1-1c0-0.6-0.4-1-1-1c-0.5,0-1,0.4-1,0.9c0,0,0,0.1,0,0.1c0,0.5,0.4,1,0.9,1C42.4,44.5,42.4,44.5,42.5,44.5"/>
	<path class="st1" d="M25.2,55L25.2,55L25.2,55C25.2,54.9,25.2,54.9,25.2,55L25.2,55l2.3-0.1c0.1,0,0.2-0.1,0.2-0.2c0,0,0,0,0,0
		c0-0.1-0.1-0.2-0.1-0.2l-2.1-1c0,0-0.1-0.1-0.1-0.1c0,0,0-0.1,0-0.1c0,0,5.4-4.8,17.3-0.1l3.3-1.6h0.1c0.1,0,0.3,0.1,0.3,0.3
		c0,0,0,0.1,0,0.1l-2,2.4l2,2.4c0,0,0,0.1,0,0.1c0,0.1-0.1,0.2-0.3,0.2h-0.1l-3.3-1.7C42.8,55.5,31.4,60,25.2,55 M29.2,54.4
		c0.6,0,1-0.5,1-1c0,0,0,0,0,0c0-0.6-0.5-1-1-1c-0.6,0-1,0.5-1.1,1c0,0,0,0,0,0C28.2,53.9,28.7,54.4,29.2,54.4
		C29.2,54.4,29.2,54.4,29.2,54.4"/>
</g>
</svg>
